REM DIRINDEX 1\2\4,1\2\5,1\3\6,1\3\7,1\3\8
REM DIRNAME folder01,folder02,folder03,folder04,folder05,folder06,folder07,folder08
TITLE ""
FILE "LEVEL1-011-midashigo.mp3" MP3
  TRACK 01 AUDIO
    TITLE "0:"
    INDEX 01 00:00:00
  TRACK 02 AUDIO
    TITLE "6:cjc092_0404"
    INDEX 01 00:00:09
  TRACK 03 AUDIO
    TITLE "0:"
    INDEX 01 00:02:14
  TRACK 04 AUDIO
    TITLE "7:cjc092_0405"
    INDEX 01 00:02:65
  TRACK 05 AUDIO
    TITLE "8:cjc092_0406"
    INDEX 01 00:04:15
  TRACK 06 AUDIO
    TITLE "0:"
    INDEX 01 00:08:23
  TRACK 07 AUDIO
    TITLE "7:cjc092_0407"
    INDEX 01 00:08:52
  TRACK 08 AUDIO
    TITLE "8:cjc092_0408"
    INDEX 01 00:09:71
  TRACK 09 AUDIO
    TITLE "0:"
    INDEX 01 00:12:32
  TRACK 10 AUDIO
    TITLE "7:cjc092_0409"
    INDEX 01 00:12:63
  TRACK 11 AUDIO
    TITLE "8:cjc092_0410"
    INDEX 01 00:14:00
  TRACK 12 AUDIO
    TITLE "0:"
    INDEX 01 00:15:58
  TRACK 13 AUDIO
    TITLE "7:cjc092_0411"
    INDEX 01 00:16:18
  TRACK 14 AUDIO
    TITLE "8:cjc092_0412"
    INDEX 01 00:17:35
  TRACK 15 AUDIO
    TITLE "0:"
    INDEX 01 00:19:38
  TRACK 16 AUDIO
    TITLE "7:cjc092_0413"
    INDEX 01 00:19:69
  TRACK 17 AUDIO
    TITLE "8:cjc092_0414"
    INDEX 01 00:21:17
  TRACK 18 AUDIO
    TITLE "0:"
    INDEX 01 00:22:62
  TRACK 19 AUDIO
    TITLE "7:cjc092_0415"
    INDEX 01 00:23:14
  TRACK 20 AUDIO
    TITLE "8:cjc092_0416"
    INDEX 01 00:24:33
  TRACK 21 AUDIO
    TITLE "0:"
    INDEX 01 00:26:44
  TRACK 22 AUDIO
    TITLE "7:cjc092_0417"
    INDEX 01 00:26:73
  TRACK 23 AUDIO
    TITLE "8:cjc092_0418"
    INDEX 01 00:28:17
  TRACK 24 AUDIO
    TITLE "0:"
    INDEX 01 00:29:68
  TRACK 25 AUDIO
    TITLE "7:cjc092_0419"
    INDEX 01 00:30:22
  TRACK 26 AUDIO
    TITLE "8:cjc092_0420"
    INDEX 01 00:31:39
  TRACK 27 AUDIO
    TITLE "0:"
    INDEX 01 00:32:62
  TRACK 28 AUDIO
    TITLE "7:cjc092_0421"
    INDEX 01 00:33:17
  TRACK 29 AUDIO
    TITLE "8:cjc092_0422"
    INDEX 01 00:34:45
  TRACK 30 AUDIO
    TITLE "0:"
    INDEX 01 00:38:16
  TRACK 31 AUDIO
    TITLE "7:cjc092_0423"
    INDEX 01 00:38:49
  TRACK 32 AUDIO
    TITLE "8:cjc092_0424"
    INDEX 01 00:39:62
  TRACK 33 AUDIO
    TITLE "0:"
    INDEX 01 00:41:22
  TRACK 34 AUDIO
    TITLE "7:cjc092_0425"
    INDEX 01 00:41:55
  TRACK 35 AUDIO
    TITLE "8:cjc092_0426"
    INDEX 01 00:43:05
  TRACK 36 AUDIO
    TITLE "0:"
    INDEX 01 00:44:34
  TRACK 37 AUDIO
    TITLE "7:cjc092_0427"
    INDEX 01 00:44:65
  TRACK 38 AUDIO
    TITLE "8:cjc092_0428"
    INDEX 01 00:46:09
  TRACK 39 AUDIO
    TITLE "0:"
    INDEX 01 00:48:71
  TRACK 40 AUDIO
    TITLE "7:cjc092_0429"
    INDEX 01 00:49:27
  TRACK 41 AUDIO
    TITLE "8:cjc092_0430"
    INDEX 01 00:50:42
  TRACK 42 AUDIO
    TITLE "0:"
    INDEX 01 00:52:41
  TRACK 43 AUDIO
    TITLE "7:cjc092_0431"
    INDEX 01 00:52:73
  TRACK 44 AUDIO
    TITLE "8:cjc092_0432"
    INDEX 01 00:54:19
  TRACK 45 AUDIO
    TITLE "0:"
    INDEX 01 00:56:53
  TRACK 46 AUDIO
    TITLE "7:cjc092_0433"
    INDEX 01 00:57:11
  TRACK 47 AUDIO
    TITLE "8:cjc092_0434"
    INDEX 01 00:58:52
  TRACK 48 AUDIO
    TITLE "0:"
    INDEX 01 01:02:38
  TRACK 49 AUDIO
    TITLE "7:cjc092_0435"
    INDEX 01 01:02:67
  TRACK 50 AUDIO
    TITLE "8:cjc092_0436"
    INDEX 01 01:04:03
  TRACK 51 AUDIO
    TITLE "0:"
    INDEX 01 01:07:21
  TRACK 52 AUDIO
    TITLE "7:cjc092_0437"
    INDEX 01 01:07:53
  TRACK 53 AUDIO
    TITLE "8:cjc092_0438"
    INDEX 01 01:08:72
  TRACK 54 AUDIO
    TITLE "0:"
    INDEX 01 01:10:47
  TRACK 55 AUDIO
    TITLE "7:cjc092_0439"
    INDEX 01 01:11:03
  TRACK 56 AUDIO
    TITLE "8:cjc092_0440"
    INDEX 01 01:12:17
  TRACK 57 AUDIO
    TITLE "0:"
    INDEX 01 01:13:40
  TRACK 58 AUDIO
    TITLE "7:cjc092_0441"
    INDEX 01 01:13:65
  TRACK 59 AUDIO
    TITLE "8:cjc092_0442"
    INDEX 01 01:15:23
  TRACK 60 AUDIO
    TITLE "0:"
    INDEX 01 01:18:06
